<svg xmlns="http://www.w3.org/2000/svg" width="1200" height="700" viewBox="0 0 1200 700">
<rect width="1200" height="700" fill="#f7f8fa"/>
<text x="52" y="50" font-family="Arial,sans-serif" font-size="29" font-weight="700" fill="#182b40">Hawkes direction score by sample size</text>
<text x="52" y="83" font-family="Arial,sans-serif" font-size="17" fill="#627286">ROC AUC of the next-sell direction score; 0.5 is the no-ranking baseline.</text>
<rect x="112" y="140" width="976" height="420" fill="#ffffff" stroke="#d4dde7"/><line x1="112" y1="540" x2="1088" y2="540" stroke="#e3e8ef"/><text x="94" y="545" text-anchor="end" font-family="Arial,sans-serif" font-size="15" fill="#5e7184">0.48</text><line x1="112" y1="481.66666666666663" x2="1088" y2="481.66666666666663" stroke="#e3e8ef"/><text x="94" y="486.66666666666663" text-anchor="end" font-family="Arial,sans-serif" font-size="15" fill="#5e7184">0.50</text><line x1="112" y1="423.33333333333326" x2="1088" y2="423.33333333333326" stroke="#e3e8ef"/><text x="94" y="428.33333333333326" text-anchor="end" font-family="Arial,sans-serif" font-size="15" fill="#5e7184">0.52</text><line x1="112" y1="364.9999999999999" x2="1088" y2="364.9999999999999" stroke="#e3e8ef"/><text x="94" y="369.9999999999999" text-anchor="end" font-family="Arial,sans-serif" font-size="15" fill="#5e7184">0.54</text><line x1="112" y1="306.66666666666646" x2="1088" y2="306.66666666666646" stroke="#e3e8ef"/><text x="94" y="311.66666666666646" text-anchor="end" font-family="Arial,sans-serif" font-size="15" fill="#5e7184">0.56</text><line x1="112" y1="248.33333333333303" x2="1088" y2="248.33333333333303" stroke="#e3e8ef"/><text x="94" y="253.33333333333303" text-anchor="end" font-family="Arial,sans-serif" font-size="15" fill="#5e7184">0.58</text><line x1="112" y1="189.99999999999972" x2="1088" y2="189.99999999999972" stroke="#e3e8ef"/><text x="94" y="194.99999999999972" text-anchor="end" font-family="Arial,sans-serif" font-size="15" fill="#5e7184">0.60</text><line x1="112" y1="481.66666666666663" x2="1088" y2="481.66666666666663" stroke="#b17b37" stroke-width="2" stroke-dasharray="7 6"/><polyline points="190,317.44845458333316 470,319.57361229166673 750,317.3627381249998 1030,317.52220891666667" fill="none" stroke="#7558a6" stroke-width="3"/><circle cx="190" cy="317.44845458333316" r="7" fill="#7558a6"/><text x="190" y="303.44845458333316" text-anchor="middle" font-family="Arial,sans-serif" font-size="15" font-weight="700" fill="#443764">0.55630</text><text x="190" y="580" text-anchor="middle" font-family="Arial,sans-serif" font-size="16" fill="#53687b">25</text><circle cx="470" cy="319.57361229166673" r="7" fill="#7558a6"/><text x="470" y="305.57361229166673" text-anchor="middle" font-family="Arial,sans-serif" font-size="15" font-weight="700" fill="#443764">0.55557</text><text x="470" y="580" text-anchor="middle" font-family="Arial,sans-serif" font-size="16" fill="#53687b">50</text><circle cx="750" cy="317.3627381249998" r="7" fill="#7558a6"/><text x="750" y="303.3627381249998" text-anchor="middle" font-family="Arial,sans-serif" font-size="15" font-weight="700" fill="#443764">0.55633</text><text x="750" y="580" text-anchor="middle" font-family="Arial,sans-serif" font-size="16" fill="#53687b">100</text><circle cx="1030" cy="317.52220891666667" r="7" fill="#7558a6"/><text x="1030" y="303.52220891666667" text-anchor="middle" font-family="Arial,sans-serif" font-size="15" font-weight="700" fill="#443764">0.55628</text><text x="1030" y="580" text-anchor="middle" font-family="Arial,sans-serif" font-size="16" fill="#53687b">200</text><text x="600" y="618" text-anchor="middle" font-family="Arial,sans-serif" font-size="18" fill="#34495f">Monte Carlo path count</text>
<line x1="850" y1="649" x2="885" y2="649" stroke="#b17b37" stroke-width="2" stroke-dasharray="7 6"/><text x="895" y="655" font-family="Arial,sans-serif" font-size="15" fill="#586d80">AUC = 0.5 baseline</text></svg>